<?xml version="1.0" standalone="no"?>
<!DOCTYPE svg PUBLIC "-//W3C//DTD SVG 1.1//EN" "http://www.w3.org/Graphics/SVG/1.1/DTD/svg11.dtd" >
<!--
2013-9-30: Created.
-->
<svg>
<metadata>
Created by iconfont
</metadata>
<defs>

<font id="iconfont" horiz-adv-x="1024" >
  <font-face
    font-family="iconfont"
    font-weight="500"
    font-stretch="normal"
    units-per-em="1024"
    ascent="896"
    descent="-128"
  />
    <missing-glyph />
    
    <glyph glyph-name="x" unicode="x" horiz-adv-x="1001"
d="M281 543q-27 -1 -53 -1h-83q-18 0 -36.5 -6t-32.5 -18.5t-23 -32t-9 -45.5v-76h912v41q0 16 -0.5 30t-0.5 18q0 13 -5 29t-17 29.5t-31.5 22.5t-49.5 9h-133v-97h-438v97zM955 310v-52q0 -23 0.5 -52t0.5 -58t-10.5 -47.5t-26 -30t-33 -16t-31.5 -4.5q-14 -1 -29.5 -0.5
t-29.5 0.5h-32l-45 128h-439l-44 -128h-29h-34q-20 0 -45 1q-25 0 -41 9.5t-25.5 23t-13.5 29.5t-4 30v167h911zM163 247q-12 0 -21 -8.5t-9 -21.5t9 -21.5t21 -8.5q13 0 22 8.5t9 21.5t-9 21.5t-22 8.5zM316 123q-8 -26 -14 -48q-5 -19 -10.5 -37t-7.5 -25t-3 -15t1 -14.5
t9.5 -10.5t21.5 -4h37h67h81h80h64h36q23 0 34 12t2 38q-5 13 -9.5 30.5t-9.5 34.5q-5 19 -11 39h-368zM336 498v228q0 11 2.5 23t10 21.5t20.5 15.5t34 6h188q31 0 51.5 -14.5t20.5 -52.5v-227h-327z" />
    

    
    <glyph glyph-name="jiatingzhuzhi" unicode="&#58950;" d="M656.792209 433.625338c0 78.691873-65.953679 142.592356-147.117767 142.592356-81.205991 0-147.243473-63.900483-147.243473-142.592356 0-78.733775 66.037483-142.67616 147.243473-142.67616C590.796628 290.907276 656.792209 354.933464 656.792209 433.625338zM411.74957 433.625338c0 52.335543 43.91325 94.866028 97.924871 94.866028 53.927817 0 97.799165-42.530485 97.799165-94.866028s-43.871348-94.949832-97.799165-94.949832C455.66282 338.717407 411.74957 381.289795 411.74957 433.625338zM608.563058 42.512481c29.289467 38.675505 40.351584 55.520092 48.187249 67.545953 8.506097 13.115312 12.696293 19.610115 38.968819 49.611916 13.324822 15.168508 130.692201 151.685081 130.692201 250.741305 0 169.367706-142.173337 307.141337-316.862591 307.141337-174.647352 0-312.001964-137.773631-312.001964-307.141337 0-76.722481 76.05205-187.008429 125.32875-241.941894l0-0.041902 2.597921-8.715607-2.34651 0.041902c24.805958-28.744742 61.009248-76.806285 90.424421-116.864555-85.605696-12.989606-145.735003-42.279074-145.735003-76.680579 0-46.259759 108.19085-83.803912 241.732384-83.803912 133.541534 0 241.732384 37.544153 241.732384 83.803912C751.28112 0.233407 692.618381 29.313364 608.563058 42.512481zM358.575988 190.426385c-45.002701 52.209837-116.361732 158.054178-116.361732 220.027171 0 143.011376 119.9653 259.331205 267.418283 259.331205 147.536787 0 267.460185-116.31983 267.460185-259.331205 0-57.992307-61.679679-154.534414-118.959653-219.859563-28.535232-32.432114-33.731075-40.477289-43.159015-54.975366-10.224077-15.797037-27.487683-42.279074-98.427695-131.865455-2.472215-2.975039-5.279646-4.609215-7.877568-4.609215s-5.36345 1.592274-6.871921 3.43596C497.941894 7.817661 407.768885 133.481627 358.575988 190.426385zM509.590638-92.076602c-111.794419 0-202.344545 25.853507-202.344545 57.740895 0 23.842213 51.329896 44.290367 124.02979 53.047876 18.394959-25.392585 31.384565-43.661838 32.054996-44.583681 11.816352-14.456175 28.158114-22.752762 45.924544-22.794664 17.682625 0 34.317702 8.296587 46.343563 23.12988 13.450528 16.970292 24.554546 31.133153 34.527212 44.080858 71.484737-8.925117 121.767084-29.079957 121.767084-52.796465C711.935183-66.223095 621.385056-92.076602 509.590638-92.076602z"  horiz-adv-x="1024" />

    
    <glyph glyph-name="biyexuexiao" unicode="&#59101;" d="M263.84 57.024c0 23.68-19.232 42.88-42.976 42.88l-114.56 0c-23.712 0-42.944-19.232-42.944-42.88s19.264-42.848 42.944-42.848l114.56 0C244.608 14.176 263.84 33.376 263.84 57.024L263.84 57.024zM63.36 300c0-23.68 19.264-42.848 42.944-42.848l114.56 0c23.744 0 42.976 19.168 42.976 42.848s-19.232 42.912-42.976 42.912l-114.56 0C82.624 342.912 63.36 323.68 63.36 300L63.36 300zM106.304 500.064l114.56 0c23.744 0 42.976 19.232 42.976 42.88 0 23.712-19.264 42.912-42.976 42.912l-114.56 0c-23.68 0-42.944-19.2-42.944-42.912C63.36 519.296 82.624 500.064 106.304 500.064L106.304 500.064zM901.376 714.464l-44.224 0-15.104 0-191.68 0 0 0L192.224 714.464c-23.744 0-42.912-19.232-42.912-42.88l0-42.88 71.552 0c47.488 0 85.92-38.368 85.92-85.792 0-47.328-38.432-85.76-85.92-85.76l-71.552 0 0-71.424 71.552 0c47.488 0 85.92-38.4 85.92-85.76s-38.432-85.728-85.92-85.728l-71.552 0 0-71.456 71.552 0c47.488 0 85.92-38.368 85.92-85.792 0-47.328-38.432-85.76-85.92-85.76l-71.552 0 0-42.816c0-23.68 19.2-42.912 42.912-42.912L614.848-114.496l35.52 0 191.68 0 0 0 59.328 0 0 0c32.672 0 59.264 19.232 59.264 42.912L960.64 671.584C960.64 695.264 934.08 714.464 901.376 714.464L901.376 714.464zM398.656 354.752c2.752 11.968 10.432 20.96 22.88 26.944 5.536-2.016 11.072-4.992 16.64-8.992l4.16 3.04 0 23.936 0 29.888c-1.408 31.936-2.08 57.92-2.08 77.856l0 32.896c-5.536 4-8.32 11.008-8.32 20.96 1.376 11.968 9.024 20.96 22.912 26.976 1.344 0 3.424-1.056 6.24-3.008l0 3.008c11.104-2.016 27.744-3.008 49.952-3.008 12.512 0 22.176 0.96 29.12 3.008 5.536 0 8.32-15.008 8.32-44.896l0-6.016c-2.784-5.984-23.616-8.96-62.432-8.96l0-20.96 52 0c6.944 1.984 9.696-11.968 8.352-41.888-1.408-2.016-8.352-4.032-20.832-6.016l-39.52 0 0-20.96 52 0c5.536-2.016 8.352-12.96 8.352-32.896l0-5.984c-2.784-6.016-22.88-8.96-60.352-8.96l0-3.04 0-11.936L581.76 375.744l85.28 0c-5.568 3.936-11.808 8.928-18.688 14.976-8.32 5.952-14.592 11.936-18.72 17.92-19.424-19.936-34.688-29.888-45.792-29.888-16.64 0-27.072 9.952-31.2 29.888 13.856 0 29.12 7.968 45.76 24-6.944 5.952-14.56 10.912-22.88 14.944-1.408 0-4.16 0.96-8.32 2.976-5.568 3.968-8.32 7.008-8.32 8.992-1.408 1.984 2.752 9.984 12.48 23.936-11.136 4-18.048 13.952-20.8 29.952 9.664-2.016 24.256 4 43.68 17.984-11.136 7.936-21.504 16.928-31.232 26.944 4.16 17.984 11.104 28.864 20.8 32.896 6.944-4.032 11.104-7.968 12.512-11.968 0-2.016 1.344-2.976 4.16-2.976 9.696-6.016 18.016-11.968 24.96-17.984 8.32 9.984 14.592 19.904 18.72 29.952 4.16 7.936 7.584 11.968 10.4 11.968 2.752-2.016 6.912-4.992 12.48-8.992 8.352-7.968 13.184-14.016 14.592-17.984-1.408-8-4.864-13.984-10.4-17.952-4.16-4-9.024-10.016-14.56-17.984 20.8-15.968 31.232-25.952 31.232-29.952-2.784-7.968-6.24-16-10.4-23.936 1.344-3.968 2.752-7.04 4.16-8.96-1.408-8-4.864-14.016-10.4-17.984-4.16-4-9.024-10.016-14.56-17.984 18.016-13.984 27.712-23.936 29.12-29.952 0-1.984-4.16-10.976-12.48-26.912 1.344 1.984 0.704 0-2.08-5.984l43.712 0 43.712 0 0 8.928L758.688 396.64c-6.976 0-15.296-1.024-24.992-2.976-11.104-2.016-19.424-2.016-24.96 0-9.728 0-14.56 2.976-14.56 8.96-1.408 15.968 0.672 28.896 6.24 38.912l12.48 3.008c4.16 0 11.776-1.024 22.88-3.008 9.696-2.016 17.344-2.016 22.912 0l0 20.96L704.512 462.496c-6.976 0-10.4 1.952-10.4 5.984 0 18.016 2.752 31.904 8.32 41.92l12.512 0 6.208 0 39.552-3.008 0 23.968L706.592 531.36c-9.696-2.016-13.888 0.96-12.48 8.928-1.408 21.984 0.672 36.896 6.24 44.928 1.344-2.016 4.16-2.016 8.32 0 2.752 1.952 5.536 3.008 8.32 3.008l4.128-3.008 52 0c4.16 1.952 9.728 3.008 16.672 3.008 12.48-6.016 20.096-16 22.88-29.952-1.376-6.016-3.456-11.968-6.24-18.016l0-2.976c-1.408-5.984-2.048-52.864-2.048-140.672l0-23.936 8.32 0c1.344 1.984 4.832 4 10.4 6.016 6.944 0 15.264-7.04 24.992-20.992l2.048-8.928c0-6.016-2.048-11.04-6.24-15.008-4.16-22.016-5.536-43.872-4.16-65.824l0-26.976c6.912-16-2.08-21.984-27.04-17.952-11.136-2.016-16.64 0.96-16.64 8.96l0 83.776L627.52 315.744l-174.752 0 0-77.824c-1.376-4-14.592-5.984-39.52-5.984-5.568-2.016-8.32 0-8.32 5.984l0 27.008c0 15.904 0.672 37.856 2.08 65.792 0 1.984-1.376 6.016-4.16 12C398.656 346.752 397.248 350.72 398.656 354.752L398.656 354.752zM856.416 151.2c-2.816-35.872-14.592-56.832-35.392-62.816-8.32 0-19.424 0.96-33.28 3.008-12.48 1.92-21.504 2.976-27.04 2.976-36.064 1.984-71.456 4.96-106.112 8.992l0-53.888c0-47.904-23.584-70.848-70.72-68.832-26.368 2.016-39.52 23.936-39.52 65.856 1.344-2.016 4.16-3.04 8.32-3.04 11.072-5.984 20.096-7.968 27.04-5.984 20.832-4.032 29.824 10.944 27.072 44.896l0 20.96L588 103.328c-37.44 0-66.592-1.056-87.36-2.976-23.616-2.016-44.416-4.064-62.432-6.016-4.16 0-9.696-1.056-16.64-2.976-6.944-2.016-11.808-2.016-14.56 0-8.32-2.016-12.48 1.92-12.48 11.968-1.408 29.952 2.048 48.864 10.4 56.832l12.512 0c4.128 2.016 7.584 3.008 10.368 3.008 6.944 0 13.856-0.992 20.832-3.008l35.36 0c8.32-2.016 18.72-2.976 31.2-2.976 20.8 0 41.6 0.96 62.4 2.976-12.48 9.984-24.96 19.904-37.44 29.952L536 190.112c-12.48 5.984-19.456 10.912-20.8 14.976-2.784 1.984-3.488 4-2.08 6.016l2.08 8.928c4.16 7.968 6.912 13.984 8.32 17.984C517.952 236 510.272 235.04 500.608 235.04c-9.728-2.016-16.64-3.008-20.8-3.008s-6.24 3.008-6.24 8.96l0 8.96 0 20.96c-1.376 19.904 6.24 28.896 22.88 26.944 4.16 0 9.024-1.024 14.56-3.008l18.72 0c30.496-2.016 74.176-3.008 131.072-3.008 29.12 2.016 51.296 3.008 66.592 3.008l2.08 0c-1.408 1.984 0.672 3.008 6.24 3.008 18.016-7.968 30.496-21.984 37.44-41.888-1.376-6.016-3.456-11.04-6.208-15.008-4.16-4-8.32-8-12.48-11.968l-4.16 0c-13.888-5.984-32.608-21.984-56.16-47.904-6.976-5.984-13.216-11.936-18.72-17.952l70.752 0c5.504 0 13.856-0.992 24.96-3.008 37.44-2.016 65.856 0.96 85.344 8.992L856.48 151.2 856.416 151.2zM563.008 240.992l0-3.008c16.64-15.968 38.144-32.896 64.512-50.88 4.16 3.968 9.696 10.016 16.672 17.984 12.48 9.952 24.96 21.92 37.44 35.904C648.352 240.992 608.768 240.992 563.008 240.992L563.008 240.992zM625.44 507.36c-8.32-7.968-18.72-16-31.232-23.936 2.752-5.984 13.184-13.984 31.232-23.968 8.32 7.968 14.592 16.928 18.72 27.008-1.376 1.92-0.704 3.936 2.08 5.984C643.456 494.4 640.032 496.448 635.84 498.4 630.272 500.384 626.816 503.36 625.44 507.36L625.44 507.36zM625.44 507.36"  horiz-adv-x="1024" />

    
    <glyph glyph-name="gerenzhongxin" unicode="&#58887;" d="M679.855 425.995c0 91.806-75.038 166.224-167.605 166.224s-167.605-74.418-167.605-166.224c0-91.796 75.038-166.214 167.605-166.214s167.605 74.418 167.605 166.214zM512.152 800c-282.231 0-511.902-229.691-511.902-512 0-282.25 229.671-512 511.902-512 282.368 0 512.098 229.691 512.098 512 0 282.25-229.73 512-512.098 512zM786.013-56.015h-36.569c0.985 8.704 1.575 17.526 1.575 26.486 0 130.757-106.91 236.82-238.769 236.82-131.879 0-238.789-105.984-238.789-236.82 0-8.96 0.611-17.782 1.595-26.486h-36.569c-0.847 8.724-1.359 17.546-1.359 26.466 0 131.742 94.11 241.625 219.254 267.244-84.795 24.084-146.885 101.356-146.885 193.182 0 111.104 90.801 201.137 202.791 201.137 111.97 0 202.732-90.033 202.732-201.137 0-91.806-62.070-169.098-146.845-193.182 125.125-25.62 219.195-135.502 219.195-267.264 0.001-8.92-0.511-17.722-1.357-26.446z"  horiz-adv-x="1025" />

    
    <glyph glyph-name="youxiang" unicode="&#58938;" d="M916.347676-44.483752 103.876324-44.483752c-22.471804 0-40.767496 18.287505-40.767496 40.768519L63.108828 612.938292c0 22.473851 18.295692 40.754193 40.767496 40.754193l812.471352 0c22.473851 0 40.769542-18.280342 40.769542-40.754193l0-616.653525C957.116195-26.196247 938.820504-44.483752 916.347676-44.483752zM103.876324 625.352019c-6.848988 0-12.42703-5.570879-12.42703-12.413727l0-616.653525c0-6.850012 5.577019-12.428054 12.42703-12.428054l812.471352 0c6.848988 0 12.429077 5.577019 12.429077 12.428054L928.776753 612.938292c0 6.842849-5.579065 12.413727-12.429077 12.413727L103.876324 625.352019zM510.125815 229.294658 68.547701 575.102568 86.011444 597.410644 510.125815 265.289454 934.212556 597.410644 951.678346 575.102568ZM95.517959-32.886623 75.481623-12.847218 364.488877 276.186641 384.526235 256.148259ZM663.093172 277.066415l289.897187-289.897187-20.038819-20.038819-289.897187 289.897187 20.038819 20.038819Z"  horiz-adv-x="1024" />

    
    <glyph glyph-name="juzhudizhi" unicode="&#58949;" d="M510.383688-149.541483c0 0-331.781452 384.566656-331.781452 570.45432S329.081459 748.432219 510.383688 748.432219c181.306322 0 332.109933-146.549727 332.109933-327.518359C842.493621 239.940113 510.383688-149.541483 510.383688-149.541483L510.383688-149.541483zM511.124562 708.594909c-160.705122-0.505513-293.428959-131.301442-292.934702-287.192931 0.491187-155.887396 292.934702-509.307681 292.934702-509.307681s291.963585 354.629833 291.781436 509.798868C802.722826 577.0622 671.827637 709.107585 511.124562 708.594909L511.124562 708.594909zM618.738511 460.514787c0-59.749826-48.442292-108.185978-108.193141-108.185978-59.752896 0-108.190071 48.436152-108.190071 108.185978 0 59.753919 48.437176 108.191094 108.190071 108.191094C570.297242 568.704858 618.738511 520.268706 618.738511 460.514787L618.738511 460.514787zM510.546394 529.362828c-38.024012 0-68.845994-30.821983-68.845994-68.848041 0-38.020942 30.821983-68.848041 68.845994-68.848041 38.021965 0 68.848041 30.827099 68.848041 68.848041C579.394435 498.540845 548.568359 529.362828 510.546394 529.362828L510.546394 529.362828zM510.546394 529.362828"  horiz-adv-x="1024" />

    
    <glyph glyph-name="shouji" unicode="&#58906;" d="M826.09 22.054c0-53.442-43.325-96.765-96.765-96.765l-434.654 0c-53.439 0-96.762 43.323-96.762 96.765l0 699.893c0 53.439 43.323 96.763 96.762 96.763l434.655 0c53.44 0 96.765-43.324 96.765-96.763l0-699.893-0.001 0zM770.25 721.947c0 22.603-18.321 40.925-40.924 40.925l-434.655 0c-22.602 0-40.924-18.322-40.924-40.925l0-699.893c0-22.603 18.322-40.924 40.924-40.924l434.655 0c22.603 0 40.924 18.321 40.924 40.924l0 699.893zM797.53 106.767l-572.341 0c-7.717 0-13.96 6.244-13.96 13.959 0 7.717 6.244 13.961 13.96 13.961l572.341 0c7.701 0 13.961-6.244 13.961-13.961-0.001-7.716-6.259-13.959-13.961-13.959zM797.53 665.155l-572.341 0c-7.717 0-13.96 6.243-13.96 13.959 0 7.717 6.244 13.961 13.96 13.961l572.341 0c7.701 0 13.961-6.244 13.961-13.961-0.001-7.716-6.259-13.959-13.961-13.959zM546.898 47.437c0-13.495-10.946-24.429-24.429-24.429l-6.979 0c-13.483 0-24.43 10.935-24.43 24.429l0 6.981c0 13.495 10.947 24.429 24.43 24.429l6.979 0c13.483 0 24.429-10.937 24.429-24.429l0-6.981zM575.09 417.128c-1.527 0-3.094 0.245-4.623 0.79-7.278 2.549-11.097 10.524-8.548 17.803l3.79 10.783c2.562 7.266 10.497 11.138 17.801 8.534 7.268-2.549 11.099-10.524 8.534-17.803l-3.788-10.783c-2.017-5.739-7.402-9.324-13.167-9.324zM521.869 265.557c-1.527 0-3.094 0.241-4.623 0.788-7.28 2.538-11.097 10.525-8.548 17.776l39.589 112.749c2.549 7.279 10.51 11.151 17.805 8.548 7.265-2.549 11.097-10.525 8.533-17.79l-39.589-112.748c-2.016-5.754-7.401-9.322-13.167-9.322zM465.295 370.825c-1.527 0-3.096 0.245-4.623 0.79-7.279 2.536-11.097 10.524-8.548 17.782l57.882 164.883c2.537 7.293 10.51 11.138 17.791 8.548 7.278-2.549 11.098-10.525 8.549-17.79l-57.882-164.89c-2.005-5.751-7.403-9.322-13.169-9.322zM438.112 293.477c-1.527 0-3.093 0.241-4.621 0.788-7.28 2.538-11.097 10.523-8.549 17.803l8.52 24.211c2.549 7.279 10.497 11.122 17.79 8.534 7.279-2.537 11.098-10.525 8.549-17.803l-8.52-24.211c-2.018-5.755-7.401-9.322-13.169-9.322z"  horiz-adv-x="1024" />

    
    <glyph glyph-name="xueli" unicode="&#58912;" d="M999.2192 617.472c-0.8192-4.096-1.4336-8.192-2.6624-12.288-9.6256-35.84-32.3584-58.5728-68.1984-67.584-24.9856-6.3488-50.176-11.8784-75.5712-17.408-5.12-1.024-6.144-3.2768-6.144-7.9872 0.2048-81.5104-0.4096-163.0208 0.4096-244.3264 0.4096-38.912-15.36-69.2224-45.2608-92.7744-25.6-20.48-55.296-32.768-86.4256-42.1888-37.2736-11.0592-75.776-16.9984-114.4832-20.48-44.4416-3.8912-88.6784-4.7104-133.12-2.8672-57.344 2.4576-114.2784 8.3968-169.1648 26.2144-30.1056 9.8304-58.5728 22.7328-82.5344 44.032-26.0096 22.9376-39.5264 51.2-39.3216 86.4256 0.4096 81.92 0.2048 163.84 0.2048 245.9648 0 4.7104-1.024 6.9632-6.144 7.9872-24.9856 5.5296-49.9712 11.264-74.9568 17.2032-38.0928 8.8064-64.9216 38.5024-70.4512 77.2096-0.2048 1.024-0.6144 1.8432-0.8192 2.8672 0 6.144 0 12.0832 0 18.2272 0.4096 1.024 0.8192 1.8432 1.024 2.8672 5.3248 37.888 31.5392 67.584 68.608 76.3904 116.736 27.2384 233.472 54.0672 350.4128 81.1008 19.456 4.5056 39.1168 8.8064 58.5728 13.312 5.7344 0 11.4688 0 17.2032 0 4.5056-1.024 8.8064-1.8432 13.312-2.8672 131.072-30.3104 262.144-60.2112 393.216-90.7264 36.6592-8.6016 59.8016-31.5392 69.632-67.9936 1.024-4.096 1.6384-8.6016 2.6624-12.6976C999.2192 628.9408 999.2192 623.2064 999.2192 617.472zM786.2272 504.2176c-2.2528-0.4096-3.4816-0.4096-4.9152-0.8192-79.4624-18.432-158.9248-36.6592-238.1824-55.0912-16.5888-3.8912-33.1776-6.5536-50.176-2.6624-79.0528 18.2272-158.1056 36.4544-237.3632 54.6816-5.7344 1.4336-11.6736 2.6624-18.2272 4.096 0-2.8672 0-4.9152 0-6.9632 0-75.9808 0.4096-152.1664-0.2048-228.1472-0.2048-14.7456 5.12-25.8048 15.5648-35.2256 4.096-3.6864 8.3968-7.3728 13.1072-10.4448 20.8896-14.5408 44.2368-23.7568 68.4032-31.1296 41.984-12.9024 84.992-19.0464 128.6144-21.7088 62.8736-3.6864 125.3376-1.2288 187.1872 11.4688 33.792 6.9632 66.7648 16.9984 96.8704 34.2016 11.8784 6.7584 23.1424 14.7456 31.744 25.8048 5.12 6.5536 7.7824 13.9264 7.7824 22.528-0.2048 77.6192 0 155.2384 0 232.6528C786.2272 499.712 786.2272 501.5552 786.2272 504.2176zM510.5664 504.2176c3.8912 0.6144 6.5536 0.8192 9.216 1.4336 100.9664 23.3472 201.9328 46.4896 302.8992 69.8368 30.1056 6.9632 60.2112 13.9264 90.3168 20.8896 12.6976 2.8672 21.2992 10.0352 24.576 22.9376 4.5056 18.0224-6.3488 33.3824-26.2144 38.0928-129.6384 29.9008-259.4816 59.8016-389.12 89.7024-6.9632 1.6384-13.5168 1.6384-20.48 0-53.4528-12.4928-106.9056-24.7808-160.3584-37.0688-76.5952-17.6128-153.1904-35.2256-229.7856-53.0432-16.1792-3.6864-26.0096-15.36-26.0096-30.5152 0-15.1552 10.0352-26.4192 26.2144-30.3104 122.4704-28.2624 244.9408-56.5248 367.4112-84.7872C490.0864 508.7232 500.9408 506.2656 510.5664 504.2176zM931.4304-43.6224c-3.4816 0.8192-6.7584 1.6384-10.24 2.6624-28.4672 8.3968-46.4896 35.84-43.2128 65.9456 3.2768 28.8768 11.4688 56.5248 25.3952 82.1248 4.7104 8.8064 11.0592 17.2032 18.0224 24.1664 10.6496 10.8544 23.3472 10.8544 33.9968-0.2048 7.5776-7.9872 14.1312-17.2032 19.456-26.8288 12.4928-23.552 19.8656-48.9472 23.552-75.5712 0.2048-1.2288 0.6144-2.2528 1.024-3.2768 0-5.12 0-10.24 0-15.1552-0.4096-1.024-0.8192-2.2528-1.024-3.2768-5.12-24.3712-19.456-40.3456-43.008-47.9232-3.072-1.024-6.5536-1.6384-9.6256-2.4576C940.8512-43.6224 936.1408-43.6224 931.4304-43.6224zM908.0832 337.5104c0 45.2608 0 90.5216 0 135.7824 0 16.5888 11.0592 29.0816 27.0336 30.9248 17.408 2.048 32.768-11.0592 33.792-28.672 0-1.024 0-2.048 0-3.072 0-90.3168 0-180.8384 0-271.1552 0-22.1184-20.0704-37.0688-40.5504-29.9008-12.288 4.3008-20.2752 15.5648-20.2752 29.2864C908.0832 246.1696 908.0832 291.84 908.0832 337.5104z"  horiz-adv-x="1024" />

    
    <glyph glyph-name="gerenzhongxinxia" unicode="&#58917;" d="M959.671902-63.00573l-37.305651 0c-24.00574 195.955974-211.712843 353.878726-410.364205 353.878726-198.657502 0-386.362558-157.922752-410.369322-353.878726L64.327074-63.00573C83.97046 117.676375 212.020858 265.784598 378.576221 315.86725c-85.433788 45.669132-146.369625 130.6015-146.369625 235.760538 0 150.862963 131.85812 279.378965 279.795451 279.378965 147.936307 0 279.795451-128.517025 279.795451-279.378965 0-105.159038-60.962443-190.091406-146.370649-235.760538C811.961746 265.784598 940.03261 117.676375 959.671902-63.00573L959.671902-63.00573zM754.487753 551.626765c0 123.431194-121.450073 242.129596-242.485707 242.129596-121.04075 0-242.490823-118.698402-242.490823-242.129596s121.450073-223.5044 242.490823-223.5044C633.038704 328.122365 754.487753 428.196595 754.487753 551.626765L754.487753 551.626765zM754.487753 551.626765"  horiz-adv-x="1024" />

    
    <glyph glyph-name="youxiang1" unicode="&#58957;" d="M848.962963 27.223271 175.037037 27.223271c-61.992913 0-112.322182 49.036833-112.322182 109.685121L62.714855 630.982114c0 60.652382 50.329269 109.794615 112.322182 109.794615l673.925926 0c62.047148 0 112.321158-49.142234 112.321158-109.794615l0-494.074745C961.284121 76.25908 911.010111 27.223271 848.962963 27.223271L848.962963 27.223271 848.962963 27.223271zM194.877921 687.867706l317.120544-264.266779 317.176826 264.266779-626.019847-2.041496 0 0L194.877921 687.867706zM908.42831 635.069199c0 15.805988-10.211573 25.808806-21.129226 35.806507l-375.299595-326.639339-375.243313 326.639339c-10.918677-9.998725-21.131273-20.00052-21.131273-35.806507l0-502.245845c0-30.328749 21.829168-52.696176 52.853765-52.696176l687.0969 0c31.025621 0 52.852742 22.367427 52.852742 52.696176L908.42831 635.069199l-3.329838-4.087085L908.42831 635.069199zM908.42831 635.069199"  horiz-adv-x="1024" />

    
    <glyph glyph-name="shouji1" unicode="&#58944;" d="M707.094795-127.970561 316.985843-127.970561c-71.027807 0-128.814378 57.606096-128.814378 128.413749L188.171465 767.547852c0 70.829412 57.785291 128.453428 128.814378 128.453428l390.108952 0c70.984288 0 128.73374-57.625295 128.73374-128.453428L835.828535 0.444468C835.828535-70.364465 778.079083-127.970561 707.094795-127.970561zM316.985843 857.602336c-49.854629 0-90.415434-40.398249-90.415434-90.054484L226.570409 0.444468c0-49.635755 40.559525-90.014805 90.415434-90.014805l390.108952 0c49.81111 0 90.334796 40.37905 90.334796 90.014805L797.429591 767.547852c0 49.656234-40.523686 90.054484-90.334796 90.054484L316.985843 857.602336zM512.078078-30.17485c-21.924517 0-43.381847 8.881676-58.866861 24.36925-15.486294 15.485014-24.36797 36.929544-24.36797 58.831022 0 21.874598 8.873996 43.324249 24.34621 58.843822 15.542613 15.492694 36.989703 24.35389 58.888621 24.35389 21.850279 0 43.27177-8.862476 58.770864-24.311651 15.515733-15.566932 24.389729-37.014022 24.389729-58.886061 0-21.898918-8.880396-43.340888-24.36669-58.828462C555.384407-21.293174 533.953956-30.17485 512.078078-30.17485zM512.078078 97.82419c-11.64 0-23.502714-4.899705-31.736727-13.10684-8.186655-8.212254-13.09916-20.074968-13.09916-31.691928 0-11.61952 4.904825-23.461755 13.120919-31.679129 8.217374-8.217374 20.073688-13.122199 31.714968-13.122199 11.596481 0 23.423356 4.904825 31.64073 13.122199 8.216094 8.217374 13.120919 20.059608 13.120919 31.679129 0 11.614401-4.913785 23.479674-13.143959 31.736727C535.505274 92.924485 523.669439 97.82419 512.078078 97.82419zM633.596656 706.130021 390.403344 706.130021c-10.603228 0-19.199472 8.596244-19.199472 19.199472s8.596244 19.199472 19.199472 19.199472l243.193312 0c10.603228 0 19.199472-8.596244 19.199472-19.199472S644.199885 706.130021 633.596656 706.130021z"  horiz-adv-x="1024" />

    
    <glyph glyph-name="changzhudizhi" unicode="&#58941;" d="M709.521525 547.675056C709.521525 644.063186 619.549341 722.333635 508.827538 722.333635 398.048572 722.333635 307.962066 644.063186 307.962066 547.675056 307.962066 451.235599 398.048572 372.913825 508.827538 372.913825 619.49218 372.862501 709.521525 451.286923 709.521525 547.675056L709.521525 547.675056ZM375.241137 547.675056C375.241137 611.779835 435.146377 663.874591 508.827536 663.874591 582.394373 663.874591 642.242452 611.779835 642.242452 547.675056 642.242452 483.570275 582.394373 431.372869 508.827536 431.372869 435.146377 431.424192 375.241137 483.570275 375.241137 547.675056L375.241137 547.675056ZM643.728653 68.608589C683.684533 115.981456 698.775166 136.61406 709.464364 151.344302 721.068147 167.408991 726.784296 175.364347 762.624549 212.112965 780.801904 230.692573 940.911234 397.909045 940.911234 519.24107 940.911234 726.696251 746.9623 895.452469 508.656053 895.452469 270.406967 895.452469 83.031606 726.696251 83.031606 519.24107 83.031606 425.265209 186.779708 290.178114 254.001619 222.891191L254.001619 222.839865 257.545631 212.16429 254.344587 212.215614C288.184188 177.006744 337.571716 118.137103 377.699081 69.070513 260.918158 53.159801 178.891421 17.283705 178.891421-24.854023 178.891421-81.516694 326.482386-127.503792 508.656051-127.503792 690.829718-127.503792 838.420683-81.516694 838.420683-24.854023 838.420685 16.82178 758.394598 52.441249 643.728653 68.608589L643.728653 68.608589ZM302.703206 249.785428C241.311767 313.736234 143.965751 443.38289 143.965751 519.292394 143.965751 694.464223 307.619096 836.9421 508.770375 836.9421 710.035979 836.9421 873.632161 694.464221 873.632161 519.292394 873.632161 448.258756 789.490448 330.006223 711.350693 249.990729 672.423718 210.265267 665.335693 200.410891 652.474359 182.652482 638.526956 163.303 614.976422 130.865673 518.202021 21.133072 514.829493 17.489006 510.999673 15.487334 507.45566 15.487334 503.911647 15.487334 500.13899 17.43768 498.081176 19.695974 492.822321 26.111585 369.810796 180.034911 302.703206 249.785428L302.703206 249.785428ZM508.713214-96.246938C356.206362-96.246938 232.680385-64.579485 232.680385-25.521249 232.680385 3.682609 302.703208 28.729154 401.878393 39.456053 426.972286 8.353174 444.692348-14.024475 445.606932-15.153622 461.726471-32.860707 484.019452-43.023035 508.255923-43.074359 532.378072-43.074359 555.071184-32.912033 571.476531-14.743024 589.82537 6.043555 604.973162 23.391365 618.577598 39.250756 716.095099 28.318555 784.688885 3.631287 784.688885-25.418598 784.746046-64.579485 661.220067-96.246938 508.713214-96.246938L508.713214-96.246938Z"  horiz-adv-x="1024" />

    
    <glyph glyph-name="xueli1" unicode="&#58940;" d="M502.213611 260.902404c-9.69378 0-19.166525 2.068102-25.326828 5.5279L53.409932 504.017444c-5.940292 3.338025-9.621125 9.619078-9.621125 16.437367 0 6.815219 3.681856 13.105482 9.621125 16.437367l423.524946 237.586117c12.099572 6.859221 38.334073 6.90834 50.630121-0.061398l423.414429-237.524718c5.940292-3.331885 9.621125-9.621125 9.621125-16.437367 0-6.817266-3.681856-13.099343-9.621125-16.437367L527.492344 266.412908C521.38116 262.964366 511.907391 260.902404 502.213611 260.902404zM495.343133 299.297876c0.195451 0 2.944052-0.699941 6.871501-0.699941 4.072759 0 6.797823 0.741897 7.509021 1.030469L903.246287 520.453788 509.061576 741.579001l0 0c-0.171915 0-2.921539 0.705058-6.846942 0.705058-4.099365 0-6.79987-0.735757-7.511067-1.02433L101.156376 520.453788 495.343133 299.297876 495.343133 299.297876zM502.336408-11.631666c-84.041068 0-162.759921 13.020548-221.659379 36.678364-50.677193 20.35663-81.084737 46.934962-81.317027 71.108524 0 0.833995-0.062422 1.632173-0.159636 2.405793l-0.159636 2.40477L199.04073 445.479213l37.696554 0 0-343.42156c0.157589-1.483794 0.257873-2.980891 0.293689-4.491291 1.939165-4.307096 15.754822-20.700461 57.697073-37.536918 54.530964-21.902846 128.267339-33.965579 207.609385-33.965579 79.368652 0 153.090701 12.062733 207.597105 33.965579 42.089607 16.897855 55.856146 33.340339 57.697073 37.561477l0.073678 1.681292-0.050142 346.18858 37.696554 0 0-347.404268-18.897396-1.730411 18.847254-0.184195c-0.243547-24.173562-30.651091-50.751894-81.329307-71.096245C665.119865 1.387859 586.390779-11.631666 502.336408-11.631666zM980.21017 428.109614M936.428014 88.718857c-10.407024 0-18.8493 8.429996-18.8493 18.847254L917.578714 399.328104c0 10.413164 8.442276 18.848277 18.8493 18.848277s18.8493-8.435113 18.8493-18.848277l0-291.761993C955.277314 97.149876 946.835038 88.718857 936.428014 88.718857z"  horiz-adv-x="1024" />

    
    <glyph glyph-name="youxiang2" unicode="&#58884;" d="M830.455808 578.574336c9.168896 6.85056 22.183936 4.583424 28.29312-3.844096 6.873088-9.168896 4.585472-22.181888-4.583424-28.291072L529.94048 310.933504c-7.63904-5.347328-16.807936-4.585472-23.709696 0L181.266432 546.43712c-9.168896 6.111232-10.696704 19.122176-4.583424 28.291072 6.90176 8.42752 19.124224 10.694656 28.291072 3.844096l312.743936-226.33472L830.455808 578.574336zM171.33568 719.245312l692.760576 0c22.943744 0 43.595776-9.168896 58.116096-24.446976 14.5408-14.5408 23.7056-35.19488 23.7056-57.37472l0-516.134912c0-22.153216-9.166848-42.805248-23.7056-58.109952l0 0 0 0 0 0c-15.282176-14.518272-35.172352-23.683072-58.116096-23.683072L171.33568 39.49568c-22.183936 0-42.809344 9.166848-57.348096 23.683072-15.280128 15.304704-24.471552 35.190784-24.471552 58.109952L89.516032 637.425664c0 22.17984 9.191424 42.83392 24.471552 57.37472l0 0C128.526336 710.078464 149.153792 719.245312 171.33568 719.245312L171.33568 719.245312zM864.096256 678.729728 171.33568 678.729728c-11.460608 0-21.417984-4.583424-29.057024-12.222464l0 0c-7.63904-7.63904-12.224512-17.598464-12.224512-29.0816l0-516.134912c0-11.45856 4.585472-22.153216 12.224512-29.054976 7.63904-7.641088 17.596416-12.222464 29.057024-12.222464l692.760576 0c11.485184 0 22.181888 4.579328 29.822976 12.222464l0 0c6.873088 6.899712 11.483136 17.596416 11.483136 29.054976L905.402368 637.425664c0 11.483136-4.610048 21.44256-11.483136 29.0816C886.278144 674.146304 875.58144 678.729728 864.096256 678.729728L864.096256 678.729728zM506.230784 310.933504c-2.265088 1.527808-3.792896 3.055616-4.583424 4.583424"  horiz-adv-x="1024" />

    
    <glyph glyph-name="xingbie3" unicode="&#58979;" d="M802.38592 447.73376 802.16064 697.344l80.09728-81.408c8.41728-8.4992 19.49696-12.8 30.57664-12.8 10.77248 0 21.68832 4.096 29.98272 12.288 16.77312 16.60928 17.05984 43.66336 0.47104 60.55936L818.56512 802.6112c-7.10656 9.29792-23.40864 26.17344-49.64352 29.16352-16.09728 2.00704-40.96-1.20832-66.43712-26.66496-32.6656-32.74752-127.03744-129.45408-127.03744-129.45408l0.18432-0.2048c-7.49568-7.68-12.16512-18.16576-12.16512-29.75744 0-23.67488 19.16928-42.76224 42.82368-42.76224 12.02176 0 22.77376 4.99712 30.49472 12.88192l0 0c0 0 42.12736 43.25376 79.79008 81.6128l0.22528-249.81504c-125.15328-20.56192-220.75392-129.04448-220.65152-260.11648C496.20992 41.90208 614.4-76.10368 760.0128-75.8784c145.63328 0.18432 263.59808 118.25152 263.3728 263.8848C1023.32416 319.05792 927.62112 427.35616 802.38592 447.73376L802.38592 447.73376zM760.7296 17.69472c-92.09856 0-166.8096 74.6496-166.8096 166.83008 0 92.16 74.60864 166.8096 166.8096 166.8096 92.09856 0 166.8096-74.6496 166.8096-166.8096C927.51872 92.34432 852.82816 17.69472 760.7296 17.69472L760.7296 17.69472zM434.09408 204.0832l-126.6688-0.08192-0.1024 104.87808 0 11.8784c125.15328 20.56192 220.75392 129.06496 220.65152 260.11648C527.872 726.50752 409.72288 844.47232 264.0896 844.26752 118.45632 844.1856 0.49152 726.016 0.59392 580.38272c0.1024-131.05152 95.88736-239.32928 221.04064-259.72736l0-11.8784 0.08192-104.87808L91.68896 203.776c-23.67488 0-42.74176-19.16928-42.74176-42.82368 0-23.67488 19.16928-42.78272 42.84416-42.78272l130.048 0.12288 0.08192-151.83872c0-23.67488 19.18976-42.74176 42.86464-42.74176s42.74176 19.18976 42.74176 42.86464l-0.1024 151.81824 126.6688 0.1024c23.67488 0 42.74176 19.18976 42.74176 42.86464C476.85632 184.9344 457.66656 204.0832 434.09408 204.0832L434.09408 204.0832zM265.68704 409.78432c-92.09856 0-166.8096 74.62912-166.8096 166.8096 0 92.20096 74.62912 166.83008 166.8096 166.83008 92.20096 0 166.83008-74.62912 166.83008-166.83008C432.49664 484.39296 357.7856 409.78432 265.68704 409.78432L265.68704 409.78432z"  horiz-adv-x="1024" />

    
    <glyph glyph-name="chushengriqi" unicode="&#58907;" d="M914.285714-128h-804.571428a109.714286 109.714286 0 0 0 0 219.428571h804.571428a109.714286 109.714286 0 0 0 0-219.428571zM804.571429 164.571429h-7.387429c4.169143 11.556571 7.387429 23.625143 7.387429 36.571428a109.714286 109.714286 0 0 1-219.428572 0c0-12.946286 3.218286-25.014857 7.387429-36.571428H431.469714c4.169143 11.556571 7.387429 23.625143 7.387429 36.571428a109.714286 109.714286 0 0 1-219.428572 0c0-12.946286 3.218286-25.014857 7.387429-36.571428H219.428571a146.285714 146.285714 0 0 0-146.285714 146.285714V384a146.285714 146.285714 0 0 0 146.285714 146.285714h585.142858a146.285714 146.285714 0 0 0 146.285714-146.285714v-73.142857a146.285714 146.285714 0 0 0-146.285714-146.285714zM582.802286 622.445714C583.460571 628.370286 585.142857 633.782857 585.142857 640 585.142857 700.562286 552.374857 749.714286 512 749.714286s-73.142857-49.152-73.142857-109.714286c0-6.217143 1.682286-11.629714 2.340571-17.554286A145.554286 145.554286 0 0 0 365.714286 749.714286C365.714286 830.537143 512 896 512 896s146.285714-65.462857 146.285714-146.285714a145.554286 145.554286 0 0 0-75.483428-127.268572z"  horiz-adv-x="1024" />

    
    <glyph glyph-name="shouji2" unicode="&#58893;" d="M709.6448 896H339.8784c-46.2848 0-84.0576-38.4384-84.0576-85.312v-853.2992c0-46.9248 37.7728-85.312 84.0576-85.312h369.7664c46.2336 0 84.0576 38.3872 84.0576 85.312V810.688C793.7024 857.5616 755.8784 896 709.6448 896zM474.3168 827.7632h100.8896c9.28 0 16.8704-7.6544 16.8704-17.0752 0-9.4848-7.5904-17.088-16.8704-17.088h-100.8896a16.8832 16.8832 0 0 0-16.7296 17.088c0 9.4208 7.488 17.0752 16.7296 17.0752z m50.4064-921.5232c-27.84 0-50.4448 22.8608-50.4448 51.1488s22.6048 51.2512 50.4448 51.2512c27.9552 0 50.4704-22.9632 50.4704-51.2512 0-28.288-22.5152-51.1488-50.4704-51.1488z m235.456 136.4608H289.472V725.3632h470.7072v-682.6624z"  horiz-adv-x="1024" />

    
    <glyph glyph-name="xueli2" unicode="&#59032;" d="M1023.9 630.9c-0.9-4.3-1.5-8.6-2.8-12.9-10.1-37.6-34-61.5-71.6-71-26.2-6.7-52.7-12.5-79.4-18.3-5.4-1.1-6.5-3.4-6.5-8.4 0.2-85.6-0.4-171.2 0.4-256.6 0.4-40.9-16.1-72.7-47.5-97.5-26.9-21.5-58.1-34.4-90.8-44.3-39.2-11.6-79.6-17.9-120.3-21.5-46.7-4.1-93.1-4.9-139.8-3-60.2 2.6-120 8.8-177.7 27.5-31.6 10.3-61.5 23.9-86.7 46.3-27.3 24.1-41.5 53.8-41.3 90.8 0.4 86 0.2 172.1 0.2 258.4 0 4.9-1.1 7.3-6.5 8.4-26.3 5.8-52.5 11.8-78.7 18.1-40 9.3-68.2 40.4-74 81.1-0.2 1.1-0.6 1.9-0.9 3v19c0.4 1.1 0.9 1.9 1.1 3 5.6 39.8 33.1 71 72.1 80.2 122.6 28.6 245.2 56.8 368.1 85.2 20.4 4.7 41.1 9.3 61.5 14h18.1c4.7-1.1 9.2-1.9 14-3 137.7-31.8 275.4-63.2 413-95.3 38.5-9 62.8-33.1 73.1-71.4 1.1-4.3 1.7-9 2.8-13.3v-18.5h0.1z m-223.7-119c-2.4-0.4-3.7-0.4-5.2-0.9-83.5-19.4-166.9-38.5-250.2-57.9-17.4-4.1-34.9-6.9-52.7-2.8-83 19.1-166.1 38.3-249.3 57.4-6 1.5-12.3 2.8-19.1 4.3v-7.3c0-79.8 0.4-159.8-0.2-239.7-0.2-15.5 5.4-27.1 16.3-37 4.3-3.9 8.8-7.7 13.8-11 21.9-15.3 46.5-25 71.9-32.7 44.1-13.6 89.3-20 135.1-22.8 66-3.9 131.7-1.3 196.6 12 35.5 7.3 70.1 17.9 101.8 35.9 12.5 7.1 24.3 15.5 33.3 27.1 5.4 6.9 8.2 14.6 8.2 23.7-0.2 81.5 0 163.1 0 244.4-0.3 2.6-0.3 4.5-0.3 7.3z m-289.6 0c4.1 0.6 6.9 0.9 9.7 1.5 106.1 24.5 212.1 48.8 318.2 73.4 31.6 7.3 63.2 14.6 94.9 21.9 13.3 3 22.4 10.5 25.8 24.1 4.7 18.9-6.7 35.1-27.5 40C795.5 704.2 659.1 735.6 523 767c-7.3 1.7-14.2 1.7-21.5 0-56.1-13.1-112.3-26-168.4-38.9-80.5-18.5-160.9-37-241.4-55.7-17-3.9-27.3-16.1-27.3-32.1 0-15.9 10.5-27.7 27.5-31.8 128.6-29.7 257.3-59.4 385.9-89.1 10.8-2.6 21.8-5.1 32.8-7.5z m442.1-575.4c-3.7 0.9-7.1 1.7-10.8 2.8-29.9 8.8-48.8 37.6-45.4 69.3 3.4 30.3 12 59.4 26.7 86.3 4.9 9.3 11.6 18.1 18.9 25.4 11.2 11.4 24.5 11.4 35.7-0.2 8-8.4 14.8-18.1 20.4-28.2 13.1-24.7 20.9-51.4 24.7-79.4 0.2-1.3 0.6-2.4 1.1-3.4V-7c-0.4-1.1-0.9-2.4-1.1-3.4-5.4-25.6-20.4-42.4-45.2-50.3-3.2-1.1-6.9-1.7-10.1-2.6-5-0.2-10-0.2-14.9-0.2zM928.1 336.8V479.4c0 17.4 11.6 30.5 28.4 32.5 18.3 2.2 34.4-11.6 35.5-30.1v-288.1c0-23.2-21.1-38.9-42.6-31.4-12.9 4.5-21.3 16.3-21.3 30.8V336.8z"  horiz-adv-x="1024" />

    
    <glyph glyph-name="xingbie" unicode="&#58960;" d="M512.3 561.9c0 123.6-100.5 224.1-224.1 224.1S64.1 685.5 64.1 561.9c0-117.3 90.6-213.6 205.5-223.1v-130.9H99.3c-10.3 0-18.6-8.3-18.6-18.6s8.3-18.6 18.6-18.6h170.3v-169.5c0-10.3 8.3-18.6 18.6-18.6s18.6 8.3 18.6 18.6V170.6h170.3c10.3 0 18.6 8.3 18.6 18.6s-8.3 18.6-18.6 18.6H306.9v131c114.8 9.5 205.4 105.8 205.4 223.1z m-409.2 0c0 102.1 83 185.1 185.1 185.1s185.1-83 185.1-185.1-83-185.1-185.1-185.1-185.1 83-185.1 185.1zM761.2 415.6v303L892 594.3c3.6-3.4 8.2-5.1 12.8-5.1 4.9 0 9.8 1.9 13.5 5.8 7.1 7.4 6.8 19.3-0.7 26.3l-160.5 152.6c-3.8 3.6-8.8 5.2-13.7 5-0.3 0-0.6 0.2-0.9 0.2-7.1 0-13.1-4.1-16.3-10L575 626.1c-7.5-7.1-7.8-18.9-0.7-26.3 7-7.5 18.9-7.8 26.3-0.7l123.3 116.5v-300C612.8 406.1 525.3 312.8 525.3 199.3c0-119.8 97.5-217.3 217.3-217.3s217.3 97.5 217.3 217.3c-0.1 113.5-87.6 206.8-198.7 216.3z m-18.6-394.5c-98.3 0-178.2 79.9-178.2 178.2 0 98.2 79.9 178.2 178.2 178.2 98.2 0 178.2-79.9 178.2-178.2s-80-178.2-178.2-178.2z"  horiz-adv-x="1024" />

    
    <glyph glyph-name="xingbie1" unicode="&#58910;" d="M613.793187 591.250831C613.793187 759.30142 476.124174 896 306.896593 896 137.665116 896 0 759.30142 0 591.250831c0-159.706422 124.453193-291.135822 282.136905-303.694943v-161.812925H134.021119c-10.006375 0-18.140087-11.968677-18.140086-26.675222 0-14.704597 8.133712-26.589481 18.140086-26.589482h148.117735v-168.596214c0-12.687733 12.013496-22.883128 26.82332-22.883128 14.790338 0 26.799937 10.195395 26.799937 22.883128v168.596214h144.031392c10.008324 0 18.116703 11.884884 18.116703 26.589482 0 14.708494-8.112276 26.675223-18.116703 26.675222h-144.031392v162.150043c155.744794 14.494142 278.031076 144.958954 278.031076 303.357825m-551.763405 0c0 134.040606 109.834337 243.18122 244.866811 243.18122 135.011039 0 244.86876-109.140614 244.868761-243.18122 0-134.087374-109.855772-243.183168-244.868761-243.183168-135.032475 0-244.866812 109.095795-244.866811 243.183168m0 0zM1142.293475 300.025371c-15.780258 38.604926-38.910866 73.197559-68.811122 102.862027-29.876873 29.668366-64.72478 52.67426-103.598622 68.30642a313.358354 313.358354 0 0 1-91.020014 21.618446V798.868985l116.83198-116.009644c11.01773-11.000192 28.885004-11.000192 39.928067 0 10.994346 10.912502 10.994346 28.699881-0.021436 39.610435L874.171341 882.764693c-11.019679 10.9164-28.888902 10.9164-39.910529 0L672.827877 722.471724c-11.01773-10.912502-11.01773-28.699881 0-39.610435 11.043063-11.000192 28.888902-11.000192 39.904683 0l109.690136 108.844417v-299.14287c-30.31727-2.782688-59.858973-9.945967-88.215891-21.36707-38.87579-15.63216-73.723697-38.640002-103.620056-68.30447-29.874924-29.666417-53.011378-64.25905-68.770201-102.862028-15.228787-37.28958-22.945485-76.646689-22.945485-117.058024 0-40.370413 7.714749-79.729471 22.945485-116.978129 15.758823-38.601029 38.895277-73.234583 68.770201-102.901001 29.898308-29.666417 64.746215-52.637235 103.620056-68.312265 37.52147-15.123559 77.178674-22.754516 117.843335-22.754516 40.658815 0 80.290685 7.630957 117.837488 22.754516 38.852406 15.67503 73.721749 38.645848 103.598622 68.312265 29.900257 29.666417 53.030865 64.299972 68.811123 102.901001 15.217095 37.248658 22.927947 76.607716 22.927947 116.978129-0.003897 40.411335-7.736185 79.766496-22.931845 117.054127m-108.696319-297.328668c-100.094929-99.360283-263.006898-99.360283-363.109622 0-100.100775 99.447973-100.100775 261.179054 0 360.584157 100.102723 99.360283 262.98936 99.360283 363.090136 0 100.12221-99.405103 100.12221-261.136184 0.019486-360.584157m0 0z"  horiz-adv-x="1165" />

    
    <glyph glyph-name="youxiang3" unicode="&#58880;" d="M1087.473207 494.003024c0 15.653284-7.568621 30.446498-20.125651 39.735259L730.887956 779.546447c-17.029397 12.55703-41.111372 12.55703-58.14077 0L336.4596 533.738283c-4.988409-3.612296-9.460776-8.428691-12.901058-14.277171-1.376113-1.204099-2.92424-2.92424-4.128339-5.160423-3.096254-5.504452-3.956325-11.868974-2.752226-15.997313-0.172014-1.376113-0.344028-2.752226-0.344028-4.300352v-408.533513c0-27.178229 22.18982-49.36805 49.36805-49.36805h672.575172c13.073072 0 25.458088 5.160423 34.918865 14.449186 9.116748 9.116748 14.449185 21.845792 14.449185 34.918864l-0.172014 408.533513zM702.333613 740.671258L1021.591802 507.24811 701.817571 324.397111l-320.290274 182.334957 319.774232 233.93919-5.332438 7.224593 6.364522-7.224593z m336.803629-655.201747c0-0.344028-0.172014-0.516042-0.344028-0.688056l-0.688057-0.344028-673.435243 1.032084V460.632286l325.278683-185.087183c7.396607-4.300353 16.857383-4.128339 23.909962 0l325.278683 185.947254v-376.022846z"  horiz-adv-x="1448" />

    
    <glyph glyph-name="gerenzhongxin1" unicode="&#58927;" d="M63.247059-124.988235c6.023529-1.505882 13.552941-3.011765 21.082353-3.011765h129.505882-129.505882c-7.529412 0-15.058824 1.505882-21.082353 3.011765zM254.494118 572.235294C224.376471 733.364706 334.305882 894.494118 505.976471 896h-1.505883C332.8 896 222.870588 733.364706 254.494118 572.235294l27.105882-155.105882c6.023529-30.117647 18.070588-57.223529 34.635294-79.811765-16.564706 22.588235-28.611765 49.694118-33.129412 78.305882l-28.611764 156.611765zM132.517647 0c0 24.094118 12.047059 48.188235 36.141177 61.741176l213.835294 123.482353 126.494117 73.788236c7.529412 4.517647 7.529412 15.058824 0 19.57647-49.694118 30.117647-85.835294 79.811765-97.882353 138.541177l-28.611764 156.611764C359.905882 698.729412 420.141176 823.717647 527.058824 873.411765c-7.529412 0-13.552941 1.505882-21.082353 1.505882-69.270588 0-132.517647-28.611765-176.188236-82.823529-48.188235-58.729412-69.270588-138.541176-54.211764-215.341177l28.611764-158.117647c9.035294-51.2 40.658824-94.870588 87.341177-123.482353 10.541176-6.023529 16.564706-16.564706 16.564706-28.611765 0-12.047059-6.023529-22.588235-16.564706-28.611764l-128-73.788236L49.694118 37.647059c-16.564706-9.035294-27.105882-25.6-27.105883-42.164706v-49.694118c0-28.611765 28.611765-51.2 61.741177-51.2h72.282353c-15.058824 15.058824-24.094118 34.635294-24.094118 55.717647v49.694118zM37.647059 57.223529l215.341176 124.988236 128 73.788235c6.023529 4.517647 7.529412 12.047059 3.011765 18.070588 1.505882-4.517647 0-12.047059-4.517647-15.058823l-126.494118-73.788236-215.341176-123.482353C13.552941 48.188235 0 24.094118 0 0v-4.517647c0 25.6 13.552941 48.188235 37.647059 61.741176zM975.811765 57.223529l-215.341177 124.988236-128 73.788235c-7.529412 4.517647-7.529412 15.058824 0 19.576471 49.694118 30.117647 85.835294 79.811765 97.882353 138.541176l28.611765 158.117647C789.082353 733.364706 679.152941 896 507.482353 896h-1.505882C334.305882 894.494118 224.376471 733.364706 254.494118 572.235294l30.117647-158.117647c6.023529-28.611765 16.564706-55.717647 33.129411-78.305882 16.564706-24.094118 39.152941-45.176471 64.752942-60.235294 1.505882 0 1.505882-1.505882 3.011764-3.011765 4.517647-6.023529 3.011765-13.552941-3.011764-18.070588l-128-73.788236-216.847059-123.482353C13.552941 43.670588 0 21.082353 0-4.517647v-49.694118c0-34.635294 27.105882-63.247059 63.247059-70.77647 6.023529-1.505882 13.552941-3.011765 21.082353-3.011765H929.129412c46.682353 0 84.329412 33.129412 84.329412 73.788235v49.694118c1.505882 25.6-13.552941 48.188235-37.647059 61.741176z m16.564706-111.435294c0-28.611765-28.611765-51.2-61.741177-51.2H84.329412c-34.635294 0-61.741176 22.588235-61.741177 51.2v49.694118c0 16.564706 10.541176 33.129412 27.105883 42.164706l215.341176 124.988235 128 73.788235c10.541176 6.023529 16.564706 16.564706 16.564706 28.611765 0 12.047059-6.023529 22.588235-16.564706 28.611765-46.682353 28.611765-78.305882 73.788235-87.341176 123.482353l-28.611765 158.117647c-15.058824 76.8 6.023529 158.117647 54.211765 215.341176 43.670588 52.705882 106.917647 82.823529 176.188235 82.82353 7.529412 0 13.552941 0 21.082353-1.505883 61.741176-6.023529 115.952941-33.129412 155.105882-81.317647 48.188235-58.729412 69.270588-138.541176 54.211765-215.341176l-30.117647-156.611765c-9.035294-51.2-40.658824-94.870588-87.341177-123.482353-10.541176-6.023529-16.564706-16.564706-16.564705-28.611765 0-12.047059 6.023529-22.588235 16.564705-28.611764l128-73.788236L965.270588 37.647059c16.564706-9.035294 27.105882-25.6 27.105883-42.164706v-49.694118z"  horiz-adv-x="1024" />

    
    <glyph glyph-name="zhuanye" unicode="&#58881;" d="M697.668 363.853c24.332 33.859 38.912 76.15 38.912 121.847 0 0.051-0 0.103-0 0.154 0 117.411-96.495 212.907-215.091 212.907-118.656 0-215.194-95.505-215.194-212.941 0-45.901 14.763-88.448 39.834-123.255l-99.618-177.51c-1.136-1.996-1.805-4.385-1.805-6.931 0-2.63 0.715-5.094 1.961-7.207 2.494-4.194 7.041-7.025 12.255-7.104l89.221-2.003 48.947-73.916c2.688-4.036 7.228-6.46 12.604-6.519 5.242 0.207 9.752 3.151 12.161 7.435l98.763 175.947 99.925-178.039c2.492-4.437 7.151-7.253 12.288-7.45h0.555c4.924 0 9.523 2.466 12.22 6.613l49.655 74.974 90.598 2.031c5.299 0.121 9.894 3.025 12.391 7.304 1.206 2.048 1.928 4.543 1.928 7.206 0 2.585-0.68 5.010-1.872 7.108l-100.639 179.359zM677.683 339.635l83.243-148.301-74.044-1.681c-4.804-0.119-9.259-2.56-11.895-6.554l-40.602-61.286-85.76 152.832c55.556 7.148 103.657 34.524 137.518 74.377zM493.15 274.799l-84.992-151.475-40.021 60.416c-2.592 3.865-6.918 6.393-11.839 6.462l-72.88 1.662 82.517 147.012c36.030-37.299 85.284-61.621 140.188-65.394zM512-128c-282.769 0-512 229.231-512 512s229.231 512 512 512 512-229.231 512-512-229.231-512-512-512zM521.489 664.474c99.473 0 180.437-80.137 180.437-178.628 0-98.458-80.964-178.577-180.437-178.577-99.558 0-180.548 80.119-180.548 178.577 0 98.492 80.99 178.628 180.548 178.628zM521.489 359.458c70.4 0 127.693 56.721 127.693 126.362 0 69.717-57.293 126.421-127.693 126.421-70.46 0-127.753-56.695-127.753-126.421 0-69.666 57.293-126.362 127.744-126.362zM521.489 579.806c52.326 0 94.891-42.155 94.891-93.952 0-51.789-42.564-93.909-94.891-93.909-52.361 0-94.95 42.121-94.95 93.909 0 51.797 42.59 93.952 94.942 93.952z"  horiz-adv-x="1024" />

    
    <glyph glyph-name="chushengriqi1" unicode="&#58920;" d="M512 896C230 896 0 666 0 384s230-512 512-512 512 230 512 512S794 896 512 896z m113.125-287.5h37.75v-113.125h-37.75V608.5zM443.75 569h154.5v-37.75H443.75v37.75zM380.875 608.5h37.75v-113.125h-37.75V608.5z m-1.875-179.625h282v-37.75H379v37.75z m0-104.125h282v-37.75H379V324.75z m411.5-140.125c0-19.75-16.125-37.75-37.75-37.75H291c-19.75 0-37.75 16.125-37.75 37.75V531.25c0 19.75 16.125 37.75 37.75 37.75h64.625v-37.75h-52.125c-7.125 0-12.625-5.375-12.625-12.625v-319.75c0-7.125 5.375-12.625 12.625-12.625H740c7.125 0 12.625 5.375 12.625 12.625V520.5c0 7.125-5.375 12.625-12.625 12.625h-52.125v37.75H752.5c19.75 0 37.75-18 37.75-39.5v-346.75h0.25z"  horiz-adv-x="1024" />

    
    <glyph glyph-name="major" unicode="&#58882;" d="M354.866939 410.947368c-10.022170999999998 0-18.101268-8.999501-18.101268-20.248876v-169.661041c0-11.147109 8.079097-20.248876 18.101268-20.248876 10.022170999999998 0 18.101268 9.101768 18.101269 20.248876v169.763308c0.102267 11.147109-8.079097 20.146609-18.101269 20.146609zM668.110922 241.28632800000003c-8.590432 0-15.851393-6.749625-17.6922-15.749126-11.965245-14.93099-83.552182-46.633776-139.389993-48.372316-54.099270999999995-1.73854-126.913413 33.236792-138.367323 48.167782-1.73854 9.101768-8.999501 15.953659999999998-17.6922 15.953659999999998-10.022170999999998 0-18.101268-8.999501-18.101268-20.248877 0-8.692699 3.783881-17.180865 11.147109-25.157695 25.259962-27.407569999999996 102.573854-59.212624 159.638869-59.212623 1.5340059999999998 0 2.965745 0 4.397483 0.102267 51.951662999999996 1.636273 174.263058 38.759213 174.263058 84.370318-0.102267 11.147109-8.181364 20.146609-18.203535 20.14661zM765.980492 461.774094L519.925962 605.5615700000001c-5.21562 3.0680119999999995-11.658444 3.0680119999999995-16.874063 0L256.99737 461.774094c-5.931489-3.47708-9.71537-10.431239-9.71537-17.896735 0-7.567762 3.783881-14.419654 9.71537-17.896734l246.15679599999999-143.582942c2.658943-1.5340059999999998 5.522421-2.352142 8.385898-2.352142 2.965745 0 5.829222 0.818136 8.385898 2.352142l246.156797 143.68520899999996c5.931489 3.47708 9.71537 10.431239 9.71537 17.896734-0.102267 7.363227999999999-3.886148 14.215119999999999-9.817637 17.794468zM511.437797 322.997703L304.4492819999999 443.775092l206.988515 120.981924 207.09078199999996-120.981924L511.437797 322.997703zM668.110922 410.947368c-10.022170999999998 0-18.101268-8.999501-18.101268-20.248876v-169.661041c0-11.147109 8.079097-20.248876 18.101268-20.248876 10.022170999999998 0 18.101268 9.101768 18.101268 20.248876v169.763308c0 11.147109-8.079097 20.146609-18.101268 20.146609zM757.594593 464.023969c-10.022170999999998 0-18.101268-8.999501-18.101268-20.248877v-247.384c0-11.147109 8.079097-20.248876 18.101268-20.248877 10.022170999999998 0 18.101268 9.101768 18.101269 20.248877V443.775092c0 11.249375999999998-8.079097 20.248876-18.101269 20.248877zM511.437797 896C228.976197 896 0.0002660000000105356 667.024069 0.0002660000000105356 384.562469s228.975931-511.437531 511.437531-511.437531S1022.875328 102.10086899999999 1022.875328 384.562469 793.8993970000001 896 511.437797 896z m0-992.09268c-265.485269 0-480.655148 215.169879-480.655148 480.655149s215.169879 480.655148 480.655148 480.655148 480.655148-215.169879 480.655148-480.655148-215.272146-480.655148-480.655148-480.655149z"  horiz-adv-x="1024" />

    
    <glyph glyph-name="ziliaoxiangqing-gerenziliao-chushengriqi" unicode="&#59148;" d="M490.666667 588.8c-8.533333 0-17.066667 8.533333-17.066667 17.066667V657.066667c0 8.533333 8.533333 17.066667 17.066667 17.066666s17.066667-8.533333 17.066666-17.066666v-51.2c0-8.533333-8.533333-17.066667-17.066666-17.066667zM802.133333 256H179.2c-29.866667 0-51.2 21.333333-51.2 51.2V546.133333C128 576 149.333333 597.333333 179.2 597.333333h627.2c25.6 0 46.933333-21.333333 46.933333-51.2v-243.2c0-25.6-21.333333-46.933333-51.2-46.933333zM179.2 546.133333v-243.2h627.2V546.133333H179.2z m0 25.6v-25.6 25.6zM490.666667 712.533333c-29.866667 0-55.466667 25.6-55.466667 55.466667 0 12.8 4.266667 34.133333 46.933333 93.866667 4.266667 8.533333 17.066667 8.533333 21.333334 0 38.4-59.733333 46.933333-81.066667 46.933333-93.866667-4.266667-34.133333-29.866667-55.466667-59.733333-55.466667z m0 115.2c-25.6-38.4-29.866667-55.466667-29.866667-64 0-17.066667 12.8-29.866667 29.866667-29.866666s29.866667 12.8 29.866666 29.866666c0 8.533333-4.266667 25.6-29.866666 64zM789.333333 106.666667c-46.933333 0-102.4 12.8-136.533333 76.8-34.133333-59.733333-89.6-76.8-136.533333-76.8s-106.666667 17.066667-136.533334 81.066666c-38.4-64-93.866667-81.066667-140.8-81.066666-55.466667 0-132.266667 25.6-153.6 149.333333-4.266667 12.8 4.266667 25.6 21.333334 29.866667 12.8 4.266667 25.6-4.266667 29.866666-21.333334 17.066667-98.133333 68.266667-106.666667 106.666667-106.666666 38.4 0 89.6 12.8 119.466667 110.933333 4.266667 12.8 12.8 17.066667 25.6 17.066667s21.333333-8.533333 21.333333-21.333334c12.8-72.533333 46.933333-106.666667 110.933333-106.666666s98.133333 34.133333 115.2 102.4c4.266667 12.8 8.533333 17.066667 25.6 21.333333 12.8 0 21.333333-8.533333 25.6-21.333333 12.8-68.266667 51.2-102.4 110.933334-102.4 38.4 0 89.6 12.8 106.666666 106.666666 4.266667 12.8 17.066667 21.333333 29.866667 21.333334 12.8-4.266667 21.333333-17.066667 21.333333-29.866667-34.133333-123.733333-106.666667-149.333333-166.4-149.333333zM930.133333-128H93.866667c-29.866667 0-51.2 21.333333-51.2 51.2v328.533333c0 25.6 21.333333 46.933333 51.2 46.933334h840.533333c25.6 0 51.2-21.333333 51.2-51.2v-328.533334c-4.266667-25.6-25.6-46.933333-55.466667-46.933333zM93.866667 247.466667v-328.533334h840.533333v328.533334H93.866667z m0 25.6v-25.6 25.6z"  horiz-adv-x="1024" />

    


  </font>
</defs>
</svg>
